  0
SECTION
  2
HEADER
  9
$ACADVER
  1
AC1009
  9
$INSBASE
 10
0.0
 20
0.0
 30
0.0
  9
$EXTMIN
 10
0.0
 20
0.0
 30
0.0
  9
$EXTMAX
 10
0.0
 20
0.0
 30
0.0
  0
ENDSEC
  0
SECTION
  2
TABLES
  0
TABLE
  2
VPORT
 70
1
  0
VPORT
  2
*ACTIVE
 70
0
 10
0.0
 20
0.0
 11
1.0
 21
1.0
 12
-5.0
 22
1.0
 13
0.0
 23
0.0
 14
0.1
 24
0.1
 15
0.1
 25
0.1
 16
0.0
 26
0.0
 36
1.0
 17
0.0
 27
0.0
 37
0.0
 40
10.0
 41
1.0
 42
50.0
 43
0.0
 44
0.0
 50
0.0
 51
0.0
 71
0
 72
100
 73
1
 74
1
 75
0
 76
0
 77
0
 78
0
  0
ENDTAB
  0
TABLE
  2
LTYPE
 70
8
  0
LTYPE
  2
CONTINUOUS
 70
0
  3
Solid line
 72
65
 73
0
 40
0.0
  0
LTYPE
  2
DOT
 70
0
  3
. . . . . . .
 72
65
 73
2
 40
0.25
 49
0.0
 49
-0.25
  0
LTYPE
  2
DASHED
 70
0
  3
__ __ __ __ __
 72
65
 73
2
 40
0.8
 49
0.5
 49
-0.3
  0
LTYPE
  2
DASHDOT
 70
0
  3
__ . __ . __ .
 72
65
 73
4
 40
1.0
 49
0.5
 49
-0.25
 49
0.0
 49
-0.25
  0
LTYPE
  2
DIVIDE
 70
0
  3
____ . . ____ . . 
 72
65
 73
6
 40
1.25
 49
0.5
 49
-0.25
 49
0.0
 49
-0.25
 49
0.0
 49
-0.25
  0
LTYPE
  2
BORDER
 70
0
  3
__ __ . __ __ . 
 72
65
 73
6
 40
1.75
 49
0.5
 49
-0.25
 49
0.5
 49
-0.25
 49
0.0
 49
-0.25
  0
LTYPE
  2
HIDDEN
 70
0
  3
__ __ __ __ __
 72
65
 73
2
 40
0.4
 49
0.25
 49
-0.25
  0
LTYPE
  2
CENTER
 70
0
  3
____ _ ____ _ __
 72
65
 73
4
 40
2.0
 49
1.25
 49
-0.25
 49
0.25
 49
-0.25
  0
ENDTAB
  0
TABLE
  2
LAYER
 70
1
  0
LAYER
  2
PYDXF
 70
64
 62
7
  6
continuous
  0
ENDTAB
  0
TABLE
  2
STYLE
 70
1
  0
STYLE
  2
STANDARD
 70
0
 40
0
 41
1.0
 50
0.0
 71
0
 42
1
 3
ARIAL.TTF
 4

  0
ENDTAB
  0
TABLE
  2
VIEW
 70
1
  0
VIEW
  2
BF_TOPVIEW
 70
0
 40
120.0
 10
0.0
 20
0.0
 41
200.0
 11
0.0
 21
0.0
 31
1.0
 12
0.0
 22
0.0
 32
0.0
 42
50.0
 43
0.0
 44
0.0
 50
0.0
 71
0
  0
ENDTAB
  0
ENDSEC
  0
SECTION
  2
BLOCKS
  0
ENDSEC
  0
SECTION
  2
ENTITIES
  0
3DFACE
  8
0
 10
1.0582685470581055
 20
-0.3533717393875122
 30
0.9333837032318115
 11
0.8142827749252319
 21
-0.3036958575248718
 31
0.5977210402488708
 12
0.7068729996681213
 22
-0.4442572593688965
 32
0.7076807618141174
 13
0.8073486089706421
 23
-0.49327293038368225
 33
0.9622094631195068
  0
3DFACE
  8
0
 10
1.208458423614502
 20
-0.3928590714931488
 30
1.353938102722168
 11
1.0582685470581055
 21
-0.3533717393875122
 31
0.9333837032318115
 12
0.8073486089706421
 22
-0.49327293038368225
 32
0.9622094631195068
 13
0.8942718505859375
 23
-0.5362188220024109
 33
1.3083760738372803
  0
3DFACE
  8
0
 10
0.5089337825775146
 20
-0.2538050711154938
 30
0.3686228394508362
 11
0.18593867123126984
 21
-0.19281741976737976
 31
0.19823360443115234
 12
0.2105078101158142
 22
-0.4239882230758667
 32
0.5199445486068726
 13
0.4828816056251526
 23
-0.43844813108444214
 33
0.6156688332557678
  0
3DFACE
  8
0
 10
1.208664894104004
 20
-0.42129844427108765
 30
1.7716641426086426
 11
1.208458423614502
 21
-0.3928590714931488
 31
1.353938102722168
 12
0.8942718505859375
 22
-0.5362188220024109
 32
1.3083760738372803
 13
0.9140408039093018
 23
-0.5519639253616333
 33
1.6556570529937744
  0
3DFACE
  8
0
 10
0.18593867123126984
 20
-0.19281741976737976
 30
0.19823360443115234
 11
1.3996492853607378e-10
 21
-0.17738857865333557
 31
0.14293798804283142
 12
7.756763981126014e-13
 22
-0.4162469506263733
 32
0.4823165535926819
 13
0.2105078101158142
 23
-0.4239882230758667
 33
0.5199445486068726
  0
3DFACE
  8
0
 10
0.6918483972549438
 20
-0.4302494525909424
 30
2.1923089027404785
 11
1.0379410982131958
 21
-0.43351608514785767
 31
2.084829330444336
 12
0.878589391708374
 22
-0.5403621792793274
 32
1.914430856704712
 13
0.6105870604515076
 23
-0.5582114458084106
 33
1.9169316291809082
  0
3DFACE
  8
0
 10
1.3505866527557373
 20
-0.2337019443511963
 30
1.8347984552383423
 11
1.1238343715667725
 21
-0.24350835382938385
 31
2.1954574584960938
 12
1.1570618152618408
 22
0.0
 32
2.249624252319336
 13
1.4043071269989014
 23
0.0
 33
1.868883490562439
  0
3DFACE
  8
0
 10
0.6105870604515076
 20
-0.5582114458084106
 30
1.9169316291809082
 11
0.283652663230896
 21
-0.5465466976165771
 31
1.8744170665740967
 12
0.3149799108505249
 22
-0.39470165967941284
 32
2.1358470916748047
 13
0.6918483972549438
 23
-0.4302494525909424
 33
2.1923089027404785
  0
3DFACE
  8
0
 10
0.07874871790409088
 20
-0.32834988832473755
 30
2.0411341190338135
 11
0.3149799108505249
 21
-0.39470165967941284
 31
2.1358470916748047
 12
0.283652663230896
 22
-0.5465466976165771
 32
1.8744170665740967
 13
-1.468967836260049e-09
 23
-0.5085945725440979
 33
1.8570237159729004
  0
3DFACE
  8
0
 10
0.283652663230896
 20
-0.5465466976165771
 30
1.8744170665740967
 11
0.6105870604515076
 21
-0.5582114458084106
 31
1.9169316291809082
 12
0.5794018507003784
 22
-0.6166465282440186
 32
1.586438536643982
 13
0.2749250829219818
 23
-0.6370938420295715
 33
1.5391366481781006
  0
3DFACE
  8
0
 10
1.0379410982131958
 20
-0.43351608514785767
 30
2.084829330444336
 11
1.208664894104004
 21
-0.42129844427108765
 31
1.7716641426086426
 12
0.9140408039093018
 22
-0.5519639253616333
 32
1.6556570529937744
 13
0.878589391708374
 23
-0.5403621792793274
 33
1.914430856704712
  0
3DFACE
  8
0
 10
0.8752285242080688
 20
-0.16366243362426758
 30
0.5266996622085571
 11
1.1765998601913452
 21
-0.1926606297492981
 31
0.8995835185050964
 12
1.2144584655761719
 22
0.0
 32
0.8918619155883789
 13
0.8774334192276001
 23
0.0
 33
0.5093923807144165
  0
3DFACE
  8
0
 10
1.1238343715667725
 20
-0.24350835382938385
 30
2.1954574584960938
 11
0.7117214202880859
 21
-0.23933057487010956
 31
2.3336992263793945
 12
0.7104037404060364
 22
0.0
 32
2.392000198364258
 13
1.1570618152618408
 23
0.0
 33
2.249624252319336
  0
3DFACE
  8
0
 10
0.05424213409423828
 20
-0.16871441900730133
 30
2.1102635860443115
 11
1.3996492853607378e-10
 21
-0.1371418833732605
 31
2.07981538772583
 12
0.0
 22
0.0
 32
2.0466766357421875
 13
0.02799416333436966
 23
0.0
 33
2.0893077850341797
  0
3DFACE
  8
0
 10
0.5231904983520508
 20
-0.1334775686264038
 30
0.2541615068912506
 11
0.8752285242080688
 21
-0.16366243362426758
 31
0.5266996622085571
 12
0.8774334192276001
 22
0.0
 32
0.5093923807144165
 13
0.5231419801712036
 23
0.0
 33
0.23274016380310059
  0
3DFACE
  8
0
 10
1.3582592010498047
 20
-0.21544666588306427
 30
1.3664354085922241
 11
1.3505866527557373
 21
-0.2337019443511963
 31
1.8347984552383423
 12
1.4043071269989014
 22
0.0
 32
1.868883490562439
 13
1.4142520427703857
 23
0.0
 33
1.3808296918869019
  0
3DFACE
  8
0
 10
0.0008318808395415545
 20
-0.08616744726896286
 30
-0.01026308536529541
 11
0.14133067429065704
 21
-0.09264162182807922
 31
0.042049579322338104
 12
0.02578127384185791
 22
0.0
 32
-0.0412595197558403
 13
0.0
 23
0.0
 33
-0.05361459404230118
  0
3DFACE
  8
0
 10
1.1765998601913452
 20
-0.1926606297492981
 30
0.8995835185050964
 11
1.3582592010498047
 21
-0.21544666588306427
 31
1.3664354085922241
 12
1.4142520427703857
 22
0.0
 32
1.3808296918869019
 13
1.2144584655761719
 23
0.0
 33
0.8918619155883789
  0
3DFACE
  8
0
 10
1.5513527962252027e-12
 20
-0.6327541470527649
 30
1.52044677734375
 11
-1.468967836260049e-09
 21
-0.5085945725440979
 31
1.8570237159729004
 12
0.283652663230896
 22
-0.5465466976165771
 32
1.8744170665740967
 13
0.2749250829219818
 23
-0.6370938420295715
 33
1.5391366481781006
  0
3DFACE
  8
0
 10
7.756763981126014e-13
 20
-0.4162469506263733
 30
0.4823165535926819
 11
2.0795830335540444e-12
 21
-0.5775684118270874
 31
0.8612855672836304
 12
0.2405073344707489
 22
-0.5759726762771606
 32
0.8831509947776794
 13
0.2105078101158142
 23
-0.4239882230758667
 33
0.5199445486068726
  0
3DFACE
  8
0
 10
2.0795830335540444e-12
 20
-0.5775684118270874
 30
0.8612855672836304
 11
1.5513527962252027e-12
 21
-0.6532756090164185
 31
1.1935946941375732
 12
0.26140692830085754
 22
-0.6494015455245972
 32
1.2125829458236694
 13
0.2405073344707489
 23
-0.5759726762771606
 33
0.8831509947776794
  0
3DFACE
  8
0
 10
1.5513527962252027e-12
 20
-0.6532756090164185
 30
1.1935946941375732
 11
1.5513527962252027e-12
 21
-0.6327541470527649
 31
1.52044677734375
 12
0.2749250829219818
 22
-0.6370938420295715
 32
1.5391366481781006
 13
0.26140692830085754
 23
-0.6494015455245972
 33
1.2125829458236694
  0
3DFACE
  8
0
 10
0.5794018507003784
 20
-0.6166465282440186
 30
1.586438536643982
 11
0.5534384846687317
 21
-0.6180981397628784
 31
1.2571260929107666
 12
0.26140692830085754
 22
-0.6494015455245972
 32
1.2125829458236694
 13
0.2749250829219818
 23
-0.6370938420295715
 33
1.5391366481781006
  0
3DFACE
  8
0
 10
0.5534384846687317
 20
-0.6180981397628784
 30
1.2571260929107666
 11
0.5123932361602783
 21
-0.5562617182731628
 31
0.9317245483398438
 12
0.2405073344707489
 22
-0.5759726762771606
 32
0.8831509947776794
 13
0.26140692830085754
 23
-0.6494015455245972
 33
1.2125829458236694
  0
3DFACE
  8
0
 10
0.4828816056251526
 20
-0.43844813108444214
 30
0.6156688332557678
 11
0.5123932361602783
 21
-0.5562617182731628
 31
0.9317245483398438
 12
0.8073486089706421
 22
-0.49327293038368225
 32
0.9622094631195068
 13
0.7068729996681213
 23
-0.4442572593688965
 33
0.7076807618141174
  0
3DFACE
  8
0
 10
0.2105078101158142
 20
-0.4239882230758667
 30
0.5199445486068726
 11
0.2405073344707489
 21
-0.5759726762771606
 31
0.8831509947776794
 12
0.5123932361602783
 22
-0.5562617182731628
 32
0.9317245483398438
 13
0.4828816056251526
 23
-0.43844813108444214
 33
0.6156688332557678
  0
3DFACE
  8
0
 10
0.8942718505859375
 20
-0.5362188220024109
 30
1.3083760738372803
 11
0.8073486089706421
 21
-0.49327293038368225
 31
0.9622094631195068
 12
0.5123932361602783
 22
-0.5562617182731628
 32
0.9317245483398438
 13
0.5534384846687317
 23
-0.6180981397628784
 33
1.2571260929107666
  0
3DFACE
  8
0
 10
0.9140408039093018
 20
-0.5519639253616333
 30
1.6556570529937744
 11
0.8942718505859375
 21
-0.5362188220024109
 31
1.3083760738372803
 12
0.5534384846687317
 22
-0.6180981397628784
 32
1.2571260929107666
 13
0.5794018507003784
 23
-0.6166465282440186
 33
1.586438536643982
  0
3DFACE
  8
0
 10
0.14133067429065704
 20
-0.09264162182807922
 30
0.042049579322338104
 11
0.5231904983520508
 21
-0.1334775686264038
 31
0.2541615068912506
 12
0.5231419801712036
 22
0.0
 32
0.23274016380310059
 13
0.02578127384185791
 23
0.0
 33
-0.0412595197558403
  0
3DFACE
  8
0
 10
0.8142827749252319
 20
-0.3036958575248718
 30
0.5977210402488708
 11
0.5089337825775146
 21
-0.2538050711154938
 31
0.3686228394508362
 12
0.4828816056251526
 22
-0.43844813108444214
 32
0.6156688332557678
 13
0.7068729996681213
 23
-0.4442572593688965
 33
0.7076807618141174
  0
3DFACE
  8
0
 10
0.6105870604515076
 20
-0.5582114458084106
 30
1.9169316291809082
 11
0.878589391708374
 21
-0.5403621792793274
 31
1.914430856704712
 12
0.9140408039093018
 22
-0.5519639253616333
 32
1.6556570529937744
 13
0.5794018507003784
 23
-0.6166465282440186
 33
1.586438536643982
  0
3DFACE
  8
0
 10
0.7117214202880859
 20
-0.23933057487010956
 30
2.3336992263793945
 11
0.28327277302742004
 21
-0.2147529423236847
 31
2.25158429145813
 12
0.24339064955711365
 22
0.0
 32
2.2761058807373047
 13
0.7104037404060364
 23
0.0
 33
2.392000198364258
  0
3DFACE
  8
0
 10
0.28327277302742004
 20
-0.2147529423236847
 30
2.25158429145813
 11
0.05424213409423828
 21
-0.16871441900730133
 31
2.1102635860443115
 12
0.02799416333436966
 22
0.0
 32
2.0893077850341797
 13
0.24339064955711365
 23
0.0
 33
2.2761058807373047
  0
3DFACE
  8
0
 10
-1.0582685470581055
 20
-0.36103343963623047
 30
0.9333837032318115
 11
-0.8073486089706421
 21
-0.49327293038368225
 31
0.9622094631195068
 12
-0.7068729996681213
 22
-0.4442572593688965
 32
0.7076807618141174
 13
-0.8142827749252319
 23
-0.3275100588798523
 33
0.5977210402488708
  0
3DFACE
  8
0
 10
-1.208458423614502
 20
-0.39372971653938293
 30
1.353938102722168
 11
-0.8942718505859375
 21
-0.5362188220024109
 31
1.3083760738372803
 12
-0.8073486089706421
 22
-0.49327293038368225
 32
0.9622094631195068
 13
-1.0582685470581055
 23
-0.36103343963623047
 33
0.9333837032318115
  0
3DFACE
  8
0
 10
-0.5089337825775146
 20
-0.2734110653400421
 30
0.3686228394508362
 11
-0.4828816056251526
 21
-0.43844813108444214
 31
0.6156688332557678
 12
-0.2105078101158142
 22
-0.4239882230758667
 32
0.5199445486068726
 13
-0.18593867123126984
 23
-0.2119724452495575
 33
0.19823360443115234
  0
3DFACE
  8
0
 10
-1.208664894104004
 20
-0.42129844427108765
 30
1.7716641426086426
 11
-0.9140408039093018
 21
-0.5519639253616333
 31
1.6556570529937744
 12
-0.8942718505859375
 22
-0.5362188220024109
 32
1.3083760738372803
 13
-1.208458423614502
 23
-0.39372971653938293
 33
1.353938102722168
  0
3DFACE
  8
0
 10
7.756763981126014e-13
 20
-0.4162469506263733
 30
0.4823165535926819
 11
1.3996492853607378e-10
 21
-0.17738857865333557
 31
0.14293798804283142
 12
-0.18593867123126984
 22
-0.2119724452495575
 32
0.19823360443115234
 13
-0.2105078101158142
 23
-0.4239882230758667
 33
0.5199445486068726
  0
3DFACE
  8
0
 10
-0.6918483972549438
 20
-0.4302494525909424
 30
2.1923089027404785
 11
-0.6105870604515076
 21
-0.5582114458084106
 31
1.9169316291809082
 12
-0.878589391708374
 22
-0.5403621792793274
 32
1.914430856704712
 13
-1.0379410982131958
 23
-0.43351608514785767
 33
2.084829330444336
  0
3DFACE
  8
0
 10
-1.3505884408950806
 20
-0.2336963713169098
 30
1.8348023891448975
 11
-1.4043071269989014
 21
0.0
 31
1.868883490562439
 12
-1.1570618152618408
 22
0.0
 32
2.249624252319336
 13
-1.1238343715667725
 23
-0.24350835382938385
 33
2.1954574584960938
  0
3DFACE
  8
0
 10
-0.6105870604515076
 20
-0.5582114458084106
 30
1.9169316291809082
 11
-0.6918483972549438
 21
-0.4302494525909424
 31
2.1923089027404785
 12
-0.3149799108505249
 22
-0.39470165967941284
 32
2.1358470916748047
 13
-0.283652663230896
 23
-0.5465466976165771
 33
1.8744170665740967
  0
3DFACE
  8
0
 10
-0.07874871790409088
 20
-0.32834988832473755
 30
2.0411341190338135
 11
-1.468967836260049e-09
 21
-0.5085945725440979
 31
1.8570237159729004
 12
-0.283652663230896
 22
-0.5465466976165771
 32
1.8744170665740967
 13
-0.3149799108505249
 23
-0.39470165967941284
 33
2.1358470916748047
  0
3DFACE
  8
0
 10
-0.283652663230896
 20
-0.5465466976165771
 30
1.8744170665740967
 11
-0.2749250829219818
 21
-0.6370938420295715
 31
1.5391366481781006
 12
-0.5794018507003784
 22
-0.6166465282440186
 32
1.586438536643982
 13
-0.6105870604515076
 23
-0.5582114458084106
 33
1.9169316291809082
  0
3DFACE
  8
0
 10
-1.0379410982131958
 20
-0.43351608514785767
 30
2.084829330444336
 11
-0.878589391708374
 21
-0.5403621792793274
 31
1.914430856704712
 12
-0.9140408039093018
 22
-0.5519639253616333
 32
1.6556570529937744
 13
-1.208664894104004
 23
-0.42129844427108765
 33
1.7716641426086426
  0
3DFACE
  8
0
 10
-0.8754072189331055
 20
-0.18118728697299957
 30
0.5266420841217041
 11
-0.8774334192276001
 21
0.0
 31
0.5093923807144165
 12
-1.2144584655761719
 22
0.0
 32
0.8918619155883789
 13
-1.1767674684524536
 23
-0.19687074422836304
 33
0.8996763229370117
  0
3DFACE
  8
0
 10
-1.1238343715667725
 20
-0.24350835382938385
 30
2.1954574584960938
 11
-1.1570618152618408
 21
0.0
 31
2.249624252319336
 12
-0.7104037404060364
 22
0.0
 32
2.392000198364258
 13
-0.7117214202880859
 23
-0.23933057487010956
 33
2.3336992263793945
  0
3DFACE
  8
0
 10
-0.05424213409423828
 20
-0.16871441900730133
 30
2.1102635860443115
 11
-0.02799416333436966
 21
0.0
 31
2.0893077850341797
 12
0.0
 22
0.0
 32
2.0466766357421875
 13
1.3996492853607378e-10
 23
-0.1371418833732605
 33
2.07981538772583
  0
3DFACE
  8
0
 10
-0.5234018564224243
 20
-0.14564234018325806
 30
0.25386983156204224
 11
-0.5231419801712036
 21
0.0
 31
0.23274016380310059
 12
-0.8774334192276001
 22
0.0
 32
0.5093923807144165
 13
-0.8754072189331055
 23
-0.18118728697299957
 33
0.5266420841217041
  0
3DFACE
  8
0
 10
-1.3582955598831177
 20
-0.21549741923809052
 30
1.3664767742156982
 11
-1.4142520427703857
 21
0.0
 31
1.3808296918869019
 12
-1.4043071269989014
 22
0.0
 32
1.868883490562439
 13
-1.3505884408950806
 23
-0.2336963713169098
 33
1.8348023891448975
  0
3DFACE
  8
0
 10
0.0008318808395415545
 20
-0.08616744726896286
 30
-0.01026308536529541
 11
0.0
 21
0.0
 31
-0.05361459404230118
 12
-0.02578127384185791
 22
0.0
 32
-0.0412595197558403
 13
-0.14058899879455566
 23
-0.10699521750211716
 33
0.04156188666820526
  0
3DFACE
  8
0
 10
-1.1767674684524536
 20
-0.19687074422836304
 30
0.8996763229370117
 11
-1.2144584655761719
 21
0.0
 31
0.8918619155883789
 12
-1.4142520427703857
 22
0.0
 32
1.3808296918869019
 13
-1.3582955598831177
 23
-0.21549741923809052
 33
1.3664767742156982
  0
3DFACE
  8
0
 10
1.5513527962252027e-12
 20
-0.6327541470527649
 30
1.52044677734375
 11
-0.2749250829219818
 21
-0.6370938420295715
 31
1.5391366481781006
 12
-0.283652663230896
 22
-0.5465466976165771
 32
1.8744170665740967
 13
-1.468967836260049e-09
 23
-0.5085945725440979
 33
1.8570237159729004
  0
3DFACE
  8
0
 10
7.756763981126014e-13
 20
-0.4162469506263733
 30
0.4823165535926819
 11
-0.2105078101158142
 21
-0.4239882230758667
 31
0.5199445486068726
 12
-0.2405073344707489
 22
-0.5759726762771606
 32
0.8831509947776794
 13
2.0795830335540444e-12
 23
-0.5775684118270874
 33
0.8612855672836304
  0
3DFACE
  8
0
 10
2.0795830335540444e-12
 20
-0.5775684118270874
 30
0.8612855672836304
 11
-0.2405073344707489
 21
-0.5759726762771606
 31
0.8831509947776794
 12
-0.26140692830085754
 22
-0.6494015455245972
 32
1.2125829458236694
 13
1.5513527962252027e-12
 23
-0.6532756090164185
 33
1.1935946941375732
  0
3DFACE
  8
0
 10
1.5513527962252027e-12
 20
-0.6532756090164185
 30
1.1935946941375732
 11
-0.26140692830085754
 21
-0.6494015455245972
 31
1.2125829458236694
 12
-0.2749250829219818
 22
-0.6370938420295715
 32
1.5391366481781006
 13
1.5513527962252027e-12
 23
-0.6327541470527649
 33
1.52044677734375
  0
3DFACE
  8
0
 10
-0.5794018507003784
 20
-0.6166465282440186
 30
1.586438536643982
 11
-0.2749250829219818
 21
-0.6370938420295715
 31
1.5391366481781006
 12
-0.26140692830085754
 22
-0.6494015455245972
 32
1.2125829458236694
 13
-0.5534384846687317
 23
-0.6180981397628784
 33
1.2571260929107666
  0
3DFACE
  8
0
 10
-0.5534384846687317
 20
-0.6180981397628784
 30
1.2571260929107666
 11
-0.26140692830085754
 21
-0.6494015455245972
 31
1.2125829458236694
 12
-0.2405073344707489
 22
-0.5759726762771606
 32
0.8831509947776794
 13
-0.5123932361602783
 23
-0.5562617182731628
 33
0.9317245483398438
  0
3DFACE
  8
0
 10
-0.4828816056251526
 20
-0.43844813108444214
 30
0.6156688332557678
 11
-0.7068729996681213
 21
-0.4442572593688965
 31
0.7076807618141174
 12
-0.8073486089706421
 22
-0.49327293038368225
 32
0.9622094631195068
 13
-0.5123932361602783
 23
-0.5562617182731628
 33
0.9317245483398438
  0
3DFACE
  8
0
 10
-0.2105078101158142
 20
-0.4239882230758667
 30
0.5199445486068726
 11
-0.4828816056251526
 21
-0.43844813108444214
 31
0.6156688332557678
 12
-0.5123932361602783
 22
-0.5562617182731628
 32
0.9317245483398438
 13
-0.2405073344707489
 23
-0.5759726762771606
 33
0.8831509947776794
  0
3DFACE
  8
0
 10
-0.8942718505859375
 20
-0.5362188220024109
 30
1.3083760738372803
 11
-0.5534384846687317
 21
-0.6180981397628784
 31
1.2571260929107666
 12
-0.5123932361602783
 22
-0.5562617182731628
 32
0.9317245483398438
 13
-0.8073486089706421
 23
-0.49327293038368225
 33
0.9622094631195068
  0
3DFACE
  8
0
 10
-0.9140408039093018
 20
-0.5519639253616333
 30
1.6556570529937744
 11
-0.5794018507003784
 21
-0.6166465282440186
 31
1.586438536643982
 12
-0.5534384846687317
 22
-0.6180981397628784
 32
1.2571260929107666
 13
-0.8942718505859375
 23
-0.5362188220024109
 33
1.3083760738372803
  0
3DFACE
  8
0
 10
-0.14058899879455566
 20
-0.10699521750211716
 30
0.04156188666820526
 11
-0.02578127384185791
 21
0.0
 31
-0.0412595197558403
 12
-0.5231419801712036
 22
0.0
 32
0.23274016380310059
 13
-0.5234018564224243
 23
-0.14564234018325806
 33
0.25386983156204224
  0
3DFACE
  8
0
 10
-0.8142827749252319
 20
-0.3275100588798523
 30
0.5977210402488708
 11
-0.7068729996681213
 21
-0.4442572593688965
 31
0.7076807618141174
 12
-0.4828816056251526
 22
-0.43844813108444214
 32
0.6156688332557678
 13
-0.5089337825775146
 23
-0.2734110653400421
 33
0.3686228394508362
  0
3DFACE
  8
0
 10
-0.6105870604515076
 20
-0.5582114458084106
 30
1.9169316291809082
 11
-0.5794018507003784
 21
-0.6166465282440186
 31
1.586438536643982
 12
-0.9140408039093018
 22
-0.5519639253616333
 32
1.6556570529937744
 13
-0.878589391708374
 23
-0.5403621792793274
 33
1.914430856704712
  0
3DFACE
  8
0
 10
-0.7117214202880859
 20
-0.23933057487010956
 30
2.3336992263793945
 11
-0.7104037404060364
 21
0.0
 31
2.392000198364258
 12
-0.24339064955711365
 22
0.0
 32
2.2761058807373047
 13
-0.28327277302742004
 23
-0.2147529423236847
 33
2.25158429145813
  0
3DFACE
  8
0
 10
-0.28327277302742004
 20
-0.2147529423236847
 30
2.25158429145813
 11
-0.24339064955711365
 21
0.0
 31
2.2761058807373047
 12
-0.02799416333436966
 22
0.0
 32
2.0893077850341797
 13
-0.05424213409423828
 23
-0.16871441900730133
 33
2.1102635860443115
  0
3DFACE
  8
0
 10
-1.468967836260049e-09
 20
-0.5085945725440979
 30
1.8570237159729004
 11
-0.07874871790409088
 21
-0.32834988832473755
 31
2.0411341190338135
 12
2.0994739280411068e-10
 22
-0.2542575001716614
 32
2.0470428466796875
 13
0.07874871790409088
 23
-0.32834988832473755
 33
2.0411341190338135
  0
3DFACE
  8
0
 10
-0.3149799108505249
 20
-0.39470165967941284
 30
2.1358470916748047
 11
-0.28327277302742004
 21
-0.2147529423236847
 31
2.25158429145813
 12
-0.05424213409423828
 22
-0.16871441900730133
 32
2.1102635860443115
 13
-0.07874871790409088
 23
-0.32834988832473755
 33
2.0411341190338135
  0
3DFACE
  8
0
 10
-0.6918483972549438
 20
-0.4302494525909424
 30
2.1923089027404785
 11
-0.7117214202880859
 21
-0.23933057487010956
 31
2.3336992263793945
 12
-0.28327277302742004
 22
-0.2147529423236847
 32
2.25158429145813
 13
-0.3149799108505249
 23
-0.39470165967941284
 33
2.1358470916748047
  0
3DFACE
  8
0
 10
-0.18593867123126984
 20
-0.2119724452495575
 30
0.19823360443115234
 11
-0.14058899879455566
 21
-0.10699521750211716
 31
0.04156188666820526
 12
-0.5234018564224243
 22
-0.14564234018325806
 32
0.25386983156204224
 13
-0.5089337825775146
 23
-0.2734110653400421
 33
0.3686228394508362
  0
3DFACE
  8
0
 10
-1.0582685470581055
 20
-0.36103343963623047
 30
0.9333837032318115
 11
-1.1767674684524536
 21
-0.19687074422836304
 31
0.8996763229370117
 12
-1.3582955598831177
 22
-0.21549741923809052
 32
1.3664767742156982
 13
-1.208458423614502
 23
-0.39372971653938293
 33
1.353938102722168
  0
3DFACE
  8
0
 10
1.3996492853607378e-10
 20
-0.17738857865333557
 30
0.14293798804283142
 11
0.0008318808395415545
 21
-0.08616744726896286
 31
-0.01026308536529541
 12
-0.14058899879455566
 22
-0.10699521750211716
 32
0.04156188666820526
 13
-0.18593867123126984
 23
-0.2119724452495575
 33
0.19823360443115234
  0
3DFACE
  8
0
 10
-1.208458423614502
 20
-0.39372971653938293
 30
1.353938102722168
 11
-1.3582955598831177
 21
-0.21549741923809052
 31
1.3664767742156982
 12
-1.3505884408950806
 22
-0.2336963713169098
 32
1.8348023891448975
 13
-1.208664894104004
 23
-0.42129844427108765
 33
1.7716641426086426
  0
3DFACE
  8
0
 10
-0.5089337825775146
 20
-0.2734110653400421
 30
0.3686228394508362
 11
-0.5234018564224243
 21
-0.14564234018325806
 31
0.25386983156204224
 12
-0.8754072189331055
 22
-0.18118728697299957
 32
0.5266420841217041
 13
-0.8142827749252319
 23
-0.3275100588798523
 33
0.5977210402488708
  0
3DFACE
  8
0
 10
-0.07874871790409088
 20
-0.32834988832473755
 30
2.0411341190338135
 11
-0.05424213409423828
 21
-0.16871441900730133
 31
2.1102635860443115
 12
1.3996492853607378e-10
 22
-0.1371418833732605
 32
2.07981538772583
 13
2.0994739280411068e-10
 23
-0.2542575001716614
 33
2.0470428466796875
  0
3DFACE
  8
0
 10
-1.0379410982131958
 20
-0.43351608514785767
 30
2.084829330444336
 11
-1.1238343715667725
 21
-0.24350835382938385
 31
2.1954574584960938
 12
-0.7117214202880859
 22
-0.23933057487010956
 32
2.3336992263793945
 13
-0.6918483972549438
 23
-0.4302494525909424
 33
2.1923089027404785
  0
3DFACE
  8
0
 10
-0.8142827749252319
 20
-0.3275100588798523
 30
0.5977210402488708
 11
-0.8754072189331055
 21
-0.18118728697299957
 31
0.5266420841217041
 12
-1.1767674684524536
 22
-0.19687074422836304
 32
0.8996763229370117
 13
-1.0582685470581055
 23
-0.36103343963623047
 33
0.9333837032318115
  0
3DFACE
  8
0
 10
-1.208664894104004
 20
-0.42129844427108765
 30
1.7716641426086426
 11
-1.3505884408950806
 21
-0.2336963713169098
 31
1.8348023891448975
 12
-1.1238343715667725
 22
-0.24350835382938385
 32
2.1954574584960938
 13
-1.0379410982131958
 23
-0.43351608514785767
 33
2.084829330444336
  0
3DFACE
  8
0
 10
0.3149799108505249
 20
-0.39470165967941284
 30
2.1358470916748047
 11
0.07874871790409088
 21
-0.32834988832473755
 31
2.0411341190338135
 12
0.05424213409423828
 22
-0.16871441900730133
 32
2.1102635860443115
 13
0.28327277302742004
 23
-0.2147529423236847
 33
2.25158429145813
  0
3DFACE
  8
0
 10
0.6918483972549438
 20
-0.4302494525909424
 30
2.1923089027404785
 11
0.3149799108505249
 21
-0.39470165967941284
 31
2.1358470916748047
 12
0.28327277302742004
 22
-0.2147529423236847
 32
2.25158429145813
 13
0.7117214202880859
 23
-0.23933057487010956
 33
2.3336992263793945
  0
3DFACE
  8
0
 10
0.18593867123126984
 20
-0.19281741976737976
 30
0.19823360443115234
 11
0.5089337825775146
 21
-0.2538050711154938
 31
0.3686228394508362
 12
0.5231904983520508
 22
-0.1334775686264038
 32
0.2541615068912506
 13
0.14133067429065704
 23
-0.09264162182807922
 33
0.042049579322338104
  0
3DFACE
  8
0
 10
1.0582685470581055
 20
-0.3533717393875122
 30
0.9333837032318115
 11
1.208458423614502
 21
-0.3928590714931488
 31
1.353938102722168
 12
1.3582592010498047
 22
-0.21544666588306427
 32
1.3664354085922241
 13
1.1765998601913452
 23
-0.1926606297492981
 33
0.8995835185050964
  0
3DFACE
  8
0
 10
1.3996492853607378e-10
 20
-0.17738857865333557
 30
0.14293798804283142
 11
0.18593867123126984
 21
-0.19281741976737976
 31
0.19823360443115234
 12
0.14133067429065704
 22
-0.09264162182807922
 32
0.042049579322338104
 13
0.0008318808395415545
 23
-0.08616744726896286
 33
-0.01026308536529541
  0
3DFACE
  8
0
 10
1.208458423614502
 20
-0.3928590714931488
 30
1.353938102722168
 11
1.208664894104004
 21
-0.42129844427108765
 31
1.7716641426086426
 12
1.3505866527557373
 22
-0.2337019443511963
 32
1.8347984552383423
 13
1.3582592010498047
 23
-0.21544666588306427
 33
1.3664354085922241
  0
3DFACE
  8
0
 10
0.5089337825775146
 20
-0.2538050711154938
 30
0.3686228394508362
 11
0.8142827749252319
 21
-0.3036958575248718
 31
0.5977210402488708
 12
0.8752285242080688
 22
-0.16366243362426758
 32
0.5266996622085571
 13
0.5231904983520508
 23
-0.1334775686264038
 33
0.2541615068912506
  0
3DFACE
  8
0
 10
0.07874871790409088
 20
-0.32834988832473755
 30
2.0411341190338135
 11
2.0994739280411068e-10
 21
-0.2542575001716614
 31
2.0470428466796875
 12
1.3996492853607378e-10
 22
-0.1371418833732605
 32
2.07981538772583
 13
0.05424213409423828
 23
-0.16871441900730133
 33
2.1102635860443115
  0
3DFACE
  8
0
 10
1.0379410982131958
 20
-0.43351608514785767
 30
2.084829330444336
 11
0.6918483972549438
 21
-0.4302494525909424
 31
2.1923089027404785
 12
0.7117214202880859
 22
-0.23933057487010956
 32
2.3336992263793945
 13
1.1238343715667725
 23
-0.24350835382938385
 33
2.1954574584960938
  0
3DFACE
  8
0
 10
0.8142827749252319
 20
-0.3036958575248718
 30
0.5977210402488708
 11
1.0582685470581055
 21
-0.3533717393875122
 31
0.9333837032318115
 12
1.1765998601913452
 22
-0.1926606297492981
 32
0.8995835185050964
 13
0.8752285242080688
 23
-0.16366243362426758
 33
0.5266996622085571
  0
3DFACE
  8
0
 10
1.208664894104004
 20
-0.42129844427108765
 30
1.7716641426086426
 11
1.0379410982131958
 21
-0.43351608514785767
 31
2.084829330444336
 12
1.1238343715667725
 22
-0.24350835382938385
 32
2.1954574584960938
 13
1.3505866527557373
 23
-0.2337019443511963
 33
1.8347984552383423
  0
3DFACE
  8
0
 10
1.0582685470581055
 20
0.3533717393875122
 30
0.9333837032318115
 11
0.8073486089706421
 21
0.49327293038368225
 31
0.9622094631195068
 12
0.7068729996681213
 22
0.4442572593688965
 32
0.7076807618141174
 13
0.8142827749252319
 23
0.3036958575248718
 33
0.5977210402488708
  0
3DFACE
  8
0
 10
1.208458423614502
 20
0.3928590714931488
 30
1.353938102722168
 11
0.8942718505859375
 21
0.5362188220024109
 31
1.3083760738372803
 12
0.8073486089706421
 22
0.49327293038368225
 32
0.9622094631195068
 13
1.0582685470581055
 23
0.3533717393875122
 33
0.9333837032318115
  0
3DFACE
  8
0
 10
0.5089337825775146
 20
0.2538050711154938
 30
0.3686228394508362
 11
0.4828816056251526
 21
0.43844813108444214
 31
0.6156688332557678
 12
0.2105078101158142
 22
0.4239882230758667
 32
0.5199445486068726
 13
0.18593867123126984
 23
0.19281741976737976
 33
0.19823360443115234
  0
3DFACE
  8
0
 10
1.208664894104004
 20
0.42129844427108765
 30
1.7716641426086426
 11
0.9140408039093018
 21
0.5519639253616333
 31
1.6556570529937744
 12
0.8942718505859375
 22
0.5362188220024109
 32
1.3083760738372803
 13
1.208458423614502
 23
0.3928590714931488
 33
1.353938102722168
  0
3DFACE
  8
0
 10
7.756763981126014e-13
 20
0.4162469506263733
 30
0.4823165535926819
 11
1.3996492853607378e-10
 21
0.17738857865333557
 31
0.14293798804283142
 12
0.18593867123126984
 22
0.19281741976737976
 32
0.19823360443115234
 13
0.2105078101158142
 23
0.4239882230758667
 33
0.5199445486068726
  0
3DFACE
  8
0
 10
0.6918483972549438
 20
0.4302494525909424
 30
2.1923089027404785
 11
0.6105870604515076
 21
0.5582114458084106
 31
1.9169316291809082
 12
0.878589391708374
 22
0.5403621792793274
 32
1.914430856704712
 13
1.0379410982131958
 23
0.43351608514785767
 33
2.084829330444336
  0
3DFACE
  8
0
 10
1.3505866527557373
 20
0.2337019443511963
 30
1.8347984552383423
 11
1.4043071269989014
 21
0.0
 31
1.868883490562439
 12
1.1570618152618408
 22
0.0
 32
2.249624252319336
 13
1.1238343715667725
 23
0.24350835382938385
 33
2.1954574584960938
  0
3DFACE
  8
0
 10
0.6105870604515076
 20
0.5582114458084106
 30
1.9169316291809082
 11
0.6918483972549438
 21
0.4302494525909424
 31
2.1923089027404785
 12
0.3149799108505249
 22
0.39470165967941284
 32
2.1358470916748047
 13
0.283652663230896
 23
0.5465466976165771
 33
1.8744170665740967
  0
3DFACE
  8
0
 10
0.07874871790409088
 20
0.32834988832473755
 30
2.0411341190338135
 11
-1.468967836260049e-09
 21
0.5085945725440979
 31
1.8570237159729004
 12
0.283652663230896
 22
0.5465466976165771
 32
1.8744170665740967
 13
0.3149799108505249
 23
0.39470165967941284
 33
2.1358470916748047
  0
3DFACE
  8
0
 10
0.283652663230896
 20
0.5465466976165771
 30
1.8744170665740967
 11
0.2749250829219818
 21
0.6370938420295715
 31
1.5391366481781006
 12
0.5794018507003784
 22
0.6166465282440186
 32
1.586438536643982
 13
0.6105870604515076
 23
0.5582114458084106
 33
1.9169316291809082
  0
3DFACE
  8
0
 10
1.0379410982131958
 20
0.43351608514785767
 30
2.084829330444336
 11
0.878589391708374
 21
0.5403621792793274
 31
1.914430856704712
 12
0.9140408039093018
 22
0.5519639253616333
 32
1.6556570529937744
 13
1.208664894104004
 23
0.42129844427108765
 33
1.7716641426086426
  0
3DFACE
  8
0
 10
0.8752285242080688
 20
0.16366243362426758
 30
0.5266996622085571
 11
0.8774334192276001
 21
0.0
 31
0.5093923807144165
 12
1.2144584655761719
 22
0.0
 32
0.8918619155883789
 13
1.1765998601913452
 23
0.1926606297492981
 33
0.8995835185050964
  0
3DFACE
  8
0
 10
1.1238343715667725
 20
0.24350835382938385
 30
2.1954574584960938
 11
1.1570618152618408
 21
0.0
 31
2.249624252319336
 12
0.7104037404060364
 22
0.0
 32
2.392000198364258
 13
0.7117214202880859
 23
0.23933057487010956
 33
2.3336992263793945
  0
3DFACE
  8
0
 10
0.05424213409423828
 20
0.16871441900730133
 30
2.1102635860443115
 11
0.02799416333436966
 21
0.0
 31
2.0893077850341797
 12
0.0
 22
0.0
 32
2.0466766357421875
 13
1.3996492853607378e-10
 23
0.1371418833732605
 33
2.07981538772583
  0
3DFACE
  8
0
 10
0.5231904983520508
 20
0.1334775686264038
 30
0.2541615068912506
 11
0.5231419801712036
 21
0.0
 31
0.23274016380310059
 12
0.8774334192276001
 22
0.0
 32
0.5093923807144165
 13
0.8752285242080688
 23
0.16366243362426758
 33
0.5266996622085571
  0
3DFACE
  8
0
 10
1.3582592010498047
 20
0.21544666588306427
 30
1.3664354085922241
 11
1.4142520427703857
 21
0.0
 31
1.3808296918869019
 12
1.4043071269989014
 22
0.0
 32
1.868883490562439
 13
1.3505866527557373
 23
0.2337019443511963
 33
1.8347984552383423
  0
3DFACE
  8
0
 10
0.0008318808395415545
 20
0.08616744726896286
 30
-0.01026308536529541
 11
0.0
 21
0.0
 31
-0.05361459404230118
 12
0.02578127384185791
 22
0.0
 32
-0.0412595197558403
 13
0.14133067429065704
 23
0.09264162182807922
 33
0.042049579322338104
  0
3DFACE
  8
0
 10
1.1765998601913452
 20
0.1926606297492981
 30
0.8995835185050964
 11
1.2144584655761719
 21
0.0
 31
0.8918619155883789
 12
1.4142520427703857
 22
0.0
 32
1.3808296918869019
 13
1.3582592010498047
 23
0.21544666588306427
 33
1.3664354085922241
  0
3DFACE
  8
0
 10
1.5513527962252027e-12
 20
0.6327541470527649
 30
1.52044677734375
 11
0.2749250829219818
 21
0.6370938420295715
 31
1.5391366481781006
 12
0.283652663230896
 22
0.5465466976165771
 32
1.8744170665740967
 13
-1.468967836260049e-09
 23
0.5085945725440979
 33
1.8570237159729004
  0
3DFACE
  8
0
 10
7.756763981126014e-13
 20
0.4162469506263733
 30
0.4823165535926819
 11
0.2105078101158142
 21
0.4239882230758667
 31
0.5199445486068726
 12
0.2405073344707489
 22
0.5759726762771606
 32
0.8831509947776794
 13
2.0795830335540444e-12
 23
0.5775684118270874
 33
0.8612855672836304
  0
3DFACE
  8
0
 10
2.0795830335540444e-12
 20
0.5775684118270874
 30
0.8612855672836304
 11
0.2405073344707489
 21
0.5759726762771606
 31
0.8831509947776794
 12
0.26140692830085754
 22
0.6494015455245972
 32
1.2125829458236694
 13
1.5513527962252027e-12
 23
0.6532756090164185
 33
1.1935946941375732
  0
3DFACE
  8
0
 10
1.5513527962252027e-12
 20
0.6532756090164185
 30
1.1935946941375732
 11
0.26140692830085754
 21
0.6494015455245972
 31
1.2125829458236694
 12
0.2749250829219818
 22
0.6370938420295715
 32
1.5391366481781006
 13
1.5513527962252027e-12
 23
0.6327541470527649
 33
1.52044677734375
  0
3DFACE
  8
0
 10
0.5794018507003784
 20
0.6166465282440186
 30
1.586438536643982
 11
0.2749250829219818
 21
0.6370938420295715
 31
1.5391366481781006
 12
0.26140692830085754
 22
0.6494015455245972
 32
1.2125829458236694
 13
0.5534384846687317
 23
0.6180981397628784
 33
1.2571260929107666
  0
3DFACE
  8
0
 10
0.5534384846687317
 20
0.6180981397628784
 30
1.2571260929107666
 11
0.26140692830085754
 21
0.6494015455245972
 31
1.2125829458236694
 12
0.2405073344707489
 22
0.5759726762771606
 32
0.8831509947776794
 13
0.5123932361602783
 23
0.5562617182731628
 33
0.9317245483398438
  0
3DFACE
  8
0
 10
0.4828816056251526
 20
0.43844813108444214
 30
0.6156688332557678
 11
0.7068729996681213
 21
0.4442572593688965
 31
0.7076807618141174
 12
0.8073486089706421
 22
0.49327293038368225
 32
0.9622094631195068
 13
0.5123932361602783
 23
0.5562617182731628
 33
0.9317245483398438
  0
3DFACE
  8
0
 10
0.2105078101158142
 20
0.4239882230758667
 30
0.5199445486068726
 11
0.4828816056251526
 21
0.43844813108444214
 31
0.6156688332557678
 12
0.5123932361602783
 22
0.5562617182731628
 32
0.9317245483398438
 13
0.2405073344707489
 23
0.5759726762771606
 33
0.8831509947776794
  0
3DFACE
  8
0
 10
0.8942718505859375
 20
0.5362188220024109
 30
1.3083760738372803
 11
0.5534384846687317
 21
0.6180981397628784
 31
1.2571260929107666
 12
0.5123932361602783
 22
0.5562617182731628
 32
0.9317245483398438
 13
0.8073486089706421
 23
0.49327293038368225
 33
0.9622094631195068
  0
3DFACE
  8
0
 10
0.9140408039093018
 20
0.5519639253616333
 30
1.6556570529937744
 11
0.5794018507003784
 21
0.6166465282440186
 31
1.586438536643982
 12
0.5534384846687317
 22
0.6180981397628784
 32
1.2571260929107666
 13
0.8942718505859375
 23
0.5362188220024109
 33
1.3083760738372803
  0
3DFACE
  8
0
 10
0.14133067429065704
 20
0.09264162182807922
 30
0.042049579322338104
 11
0.02578127384185791
 21
0.0
 31
-0.0412595197558403
 12
0.5231419801712036
 22
0.0
 32
0.23274016380310059
 13
0.5231904983520508
 23
0.1334775686264038
 33
0.2541615068912506
  0
3DFACE
  8
0
 10
0.8142827749252319
 20
0.3036958575248718
 30
0.5977210402488708
 11
0.7068729996681213
 21
0.4442572593688965
 31
0.7076807618141174
 12
0.4828816056251526
 22
0.43844813108444214
 32
0.6156688332557678
 13
0.5089337825775146
 23
0.2538050711154938
 33
0.3686228394508362
  0
3DFACE
  8
0
 10
0.6105870604515076
 20
0.5582114458084106
 30
1.9169316291809082
 11
0.5794018507003784
 21
0.6166465282440186
 31
1.586438536643982
 12
0.9140408039093018
 22
0.5519639253616333
 32
1.6556570529937744
 13
0.878589391708374
 23
0.5403621792793274
 33
1.914430856704712
  0
3DFACE
  8
0
 10
0.7117214202880859
 20
0.23933057487010956
 30
2.3336992263793945
 11
0.7104037404060364
 21
0.0
 31
2.392000198364258
 12
0.24339064955711365
 22
0.0
 32
2.2761058807373047
 13
0.28327277302742004
 23
0.2147529423236847
 33
2.25158429145813
  0
3DFACE
  8
0
 10
0.28327277302742004
 20
0.2147529423236847
 30
2.25158429145813
 11
0.24339064955711365
 21
0.0
 31
2.2761058807373047
 12
0.02799416333436966
 22
0.0
 32
2.0893077850341797
 13
0.05424213409423828
 23
0.16871441900730133
 33
2.1102635860443115
  0
3DFACE
  8
0
 10
-1.0582685470581055
 20
0.36103343963623047
 30
0.9333837032318115
 11
-0.8142827749252319
 21
0.3275100588798523
 31
0.5977210402488708
 12
-0.7068729996681213
 22
0.4442572593688965
 32
0.7076807618141174
 13
-0.8073486089706421
 23
0.49327293038368225
 33
0.9622094631195068
  0
3DFACE
  8
0
 10
-1.208458423614502
 20
0.39372971653938293
 30
1.353938102722168
 11
-1.0582685470581055
 21
0.36103343963623047
 31
0.9333837032318115
 12
-0.8073486089706421
 22
0.49327293038368225
 32
0.9622094631195068
 13
-0.8942718505859375
 23
0.5362188220024109
 33
1.3083760738372803
  0
3DFACE
  8
0
 10
-0.5089337825775146
 20
0.2734110653400421
 30
0.3686228394508362
 11
-0.18593867123126984
 21
0.2119724452495575
 31
0.19823360443115234
 12
-0.2105078101158142
 22
0.4239882230758667
 32
0.5199445486068726
 13
-0.4828816056251526
 23
0.43844813108444214
 33
0.6156688332557678
  0
3DFACE
  8
0
 10
-1.208664894104004
 20
0.42129844427108765
 30
1.7716641426086426
 11
-1.208458423614502
 21
0.39372971653938293
 31
1.353938102722168
 12
-0.8942718505859375
 22
0.5362188220024109
 32
1.3083760738372803
 13
-0.9140408039093018
 23
0.5519639253616333
 33
1.6556570529937744
  0
3DFACE
  8
0
 10
7.756763981126014e-13
 20
0.4162469506263733
 30
0.4823165535926819
 11
-0.2105078101158142
 21
0.4239882230758667
 31
0.5199445486068726
 12
-0.18593867123126984
 22
0.2119724452495575
 32
0.19823360443115234
 13
1.3996492853607378e-10
 23
0.17738857865333557
 33
0.14293798804283142
  0
3DFACE
  8
0
 10
-0.6918483972549438
 20
0.4302494525909424
 30
2.1923089027404785
 11
-1.0379410982131958
 21
0.43351608514785767
 31
2.084829330444336
 12
-0.878589391708374
 22
0.5403621792793274
 32
1.914430856704712
 13
-0.6105870604515076
 23
0.5582114458084106
 33
1.9169316291809082
  0
3DFACE
  8
0
 10
-1.3505884408950806
 20
0.2336963713169098
 30
1.8348023891448975
 11
-1.1238343715667725
 21
0.24350835382938385
 31
2.1954574584960938
 12
-1.1570618152618408
 22
0.0
 32
2.249624252319336
 13
-1.4043071269989014
 23
0.0
 33
1.868883490562439
  0
3DFACE
  8
0
 10
-0.6105870604515076
 20
0.5582114458084106
 30
1.9169316291809082
 11
-0.283652663230896
 21
0.5465466976165771
 31
1.8744170665740967
 12
-0.3149799108505249
 22
0.39470165967941284
 32
2.1358470916748047
 13
-0.6918483972549438
 23
0.4302494525909424
 33
2.1923089027404785
  0
3DFACE
  8
0
 10
-0.07874871790409088
 20
0.32834988832473755
 30
2.0411341190338135
 11
-0.3149799108505249
 21
0.39470165967941284
 31
2.1358470916748047
 12
-0.283652663230896
 22
0.5465466976165771
 32
1.8744170665740967
 13
-1.468967836260049e-09
 23
0.5085945725440979
 33
1.8570237159729004
  0
3DFACE
  8
0
 10
-0.283652663230896
 20
0.5465466976165771
 30
1.8744170665740967
 11
-0.6105870604515076
 21
0.5582114458084106
 31
1.9169316291809082
 12
-0.5794018507003784
 22
0.6166465282440186
 32
1.586438536643982
 13
-0.2749250829219818
 23
0.6370938420295715
 33
1.5391366481781006
  0
3DFACE
  8
0
 10
-1.0379410982131958
 20
0.43351608514785767
 30
2.084829330444336
 11
-1.208664894104004
 21
0.42129844427108765
 31
1.7716641426086426
 12
-0.9140408039093018
 22
0.5519639253616333
 32
1.6556570529937744
 13
-0.878589391708374
 23
0.5403621792793274
 33
1.914430856704712
  0
3DFACE
  8
0
 10
-0.8754072189331055
 20
0.18118728697299957
 30
0.5266420841217041
 11
-1.1767674684524536
 21
0.19687074422836304
 31
0.8996763229370117
 12
-1.2144584655761719
 22
0.0
 32
0.8918619155883789
 13
-0.8774334192276001
 23
0.0
 33
0.5093923807144165
  0
3DFACE
  8
0
 10
-1.1238343715667725
 20
0.24350835382938385
 30
2.1954574584960938
 11
-0.7117214202880859
 21
0.23933057487010956
 31
2.3336992263793945
 12
-0.7104037404060364
 22
0.0
 32
2.392000198364258
 13
-1.1570618152618408
 23
0.0
 33
2.249624252319336
  0
3DFACE
  8
0
 10
-0.05424213409423828
 20
0.16871441900730133
 30
2.1102635860443115
 11
1.3996492853607378e-10
 21
0.1371418833732605
 31
2.07981538772583
 12
0.0
 22
0.0
 32
2.0466766357421875
 13
-0.02799416333436966
 23
0.0
 33
2.0893077850341797
  0
3DFACE
  8
0
 10
-0.5234018564224243
 20
0.14564234018325806
 30
0.25386983156204224
 11
-0.8754072189331055
 21
0.18118728697299957
 31
0.5266420841217041
 12
-0.8774334192276001
 22
0.0
 32
0.5093923807144165
 13
-0.5231419801712036
 23
0.0
 33
0.23274016380310059
  0
3DFACE
  8
0
 10
-1.3582955598831177
 20
0.21549741923809052
 30
1.3664767742156982
 11
-1.3505884408950806
 21
0.2336963713169098
 31
1.8348023891448975
 12
-1.4043071269989014
 22
0.0
 32
1.868883490562439
 13
-1.4142520427703857
 23
0.0
 33
1.3808296918869019
  0
3DFACE
  8
0
 10
0.0008318808395415545
 20
0.08616744726896286
 30
-0.01026308536529541
 11
-0.14058899879455566
 21
0.10699521750211716
 31
0.04156188666820526
 12
-0.02578127384185791
 22
0.0
 32
-0.0412595197558403
 13
0.0
 23
0.0
 33
-0.05361459404230118
  0
3DFACE
  8
0
 10
-1.1767674684524536
 20
0.19687074422836304
 30
0.8996763229370117
 11
-1.3582955598831177
 21
0.21549741923809052
 31
1.3664767742156982
 12
-1.4142520427703857
 22
0.0
 32
1.3808296918869019
 13
-1.2144584655761719
 23
0.0
 33
0.8918619155883789
  0
3DFACE
  8
0
 10
1.5513527962252027e-12
 20
0.6327541470527649
 30
1.52044677734375
 11
-1.468967836260049e-09
 21
0.5085945725440979
 31
1.8570237159729004
 12
-0.283652663230896
 22
0.5465466976165771
 32
1.8744170665740967
 13
-0.2749250829219818
 23
0.6370938420295715
 33
1.5391366481781006
  0
3DFACE
  8
0
 10
7.756763981126014e-13
 20
0.4162469506263733
 30
0.4823165535926819
 11
2.0795830335540444e-12
 21
0.5775684118270874
 31
0.8612855672836304
 12
-0.2405073344707489
 22
0.5759726762771606
 32
0.8831509947776794
 13
-0.2105078101158142
 23
0.4239882230758667
 33
0.5199445486068726
  0
3DFACE
  8
0
 10
2.0795830335540444e-12
 20
0.5775684118270874
 30
0.8612855672836304
 11
1.5513527962252027e-12
 21
0.6532756090164185
 31
1.1935946941375732
 12
-0.26140692830085754
 22
0.6494015455245972
 32
1.2125829458236694
 13
-0.2405073344707489
 23
0.5759726762771606
 33
0.8831509947776794
  0
3DFACE
  8
0
 10
1.5513527962252027e-12
 20
0.6532756090164185
 30
1.1935946941375732
 11
1.5513527962252027e-12
 21
0.6327541470527649
 31
1.52044677734375
 12
-0.2749250829219818
 22
0.6370938420295715
 32
1.5391366481781006
 13
-0.26140692830085754
 23
0.6494015455245972
 33
1.2125829458236694
  0
3DFACE
  8
0
 10
-0.5794018507003784
 20
0.6166465282440186
 30
1.586438536643982
 11
-0.5534384846687317
 21
0.6180981397628784
 31
1.2571260929107666
 12
-0.26140692830085754
 22
0.6494015455245972
 32
1.2125829458236694
 13
-0.2749250829219818
 23
0.6370938420295715
 33
1.5391366481781006
  0
3DFACE
  8
0
 10
-0.5534384846687317
 20
0.6180981397628784
 30
1.2571260929107666
 11
-0.5123932361602783
 21
0.5562617182731628
 31
0.9317245483398438
 12
-0.2405073344707489
 22
0.5759726762771606
 32
0.8831509947776794
 13
-0.26140692830085754
 23
0.6494015455245972
 33
1.2125829458236694
  0
3DFACE
  8
0
 10
-0.4828816056251526
 20
0.43844813108444214
 30
0.6156688332557678
 11
-0.5123932361602783
 21
0.5562617182731628
 31
0.9317245483398438
 12
-0.8073486089706421
 22
0.49327293038368225
 32
0.9622094631195068
 13
-0.7068729996681213
 23
0.4442572593688965
 33
0.7076807618141174
  0
3DFACE
  8
0
 10
-0.2105078101158142
 20
0.4239882230758667
 30
0.5199445486068726
 11
-0.2405073344707489
 21
0.5759726762771606
 31
0.8831509947776794
 12
-0.5123932361602783
 22
0.5562617182731628
 32
0.9317245483398438
 13
-0.4828816056251526
 23
0.43844813108444214
 33
0.6156688332557678
  0
3DFACE
  8
0
 10
-0.8942718505859375
 20
0.5362188220024109
 30
1.3083760738372803
 11
-0.8073486089706421
 21
0.49327293038368225
 31
0.9622094631195068
 12
-0.5123932361602783
 22
0.5562617182731628
 32
0.9317245483398438
 13
-0.5534384846687317
 23
0.6180981397628784
 33
1.2571260929107666
  0
3DFACE
  8
0
 10
-0.9140408039093018
 20
0.5519639253616333
 30
1.6556570529937744
 11
-0.8942718505859375
 21
0.5362188220024109
 31
1.3083760738372803
 12
-0.5534384846687317
 22
0.6180981397628784
 32
1.2571260929107666
 13
-0.5794018507003784
 23
0.6166465282440186
 33
1.586438536643982
  0
3DFACE
  8
0
 10
-0.14058899879455566
 20
0.10699521750211716
 30
0.04156188666820526
 11
-0.5234018564224243
 21
0.14564234018325806
 31
0.25386983156204224
 12
-0.5231419801712036
 22
0.0
 32
0.23274016380310059
 13
-0.02578127384185791
 23
0.0
 33
-0.0412595197558403
  0
3DFACE
  8
0
 10
-0.8142827749252319
 20
0.3275100588798523
 30
0.5977210402488708
 11
-0.5089337825775146
 21
0.2734110653400421
 31
0.3686228394508362
 12
-0.4828816056251526
 22
0.43844813108444214
 32
0.6156688332557678
 13
-0.7068729996681213
 23
0.4442572593688965
 33
0.7076807618141174
  0
3DFACE
  8
0
 10
-0.6105870604515076
 20
0.5582114458084106
 30
1.9169316291809082
 11
-0.878589391708374
 21
0.5403621792793274
 31
1.914430856704712
 12
-0.9140408039093018
 22
0.5519639253616333
 32
1.6556570529937744
 13
-0.5794018507003784
 23
0.6166465282440186
 33
1.586438536643982
  0
3DFACE
  8
0
 10
-0.7117214202880859
 20
0.23933057487010956
 30
2.3336992263793945
 11
-0.28327277302742004
 21
0.2147529423236847
 31
2.25158429145813
 12
-0.24339064955711365
 22
0.0
 32
2.2761058807373047
 13
-0.7104037404060364
 23
0.0
 33
2.392000198364258
  0
3DFACE
  8
0
 10
-0.28327277302742004
 20
0.2147529423236847
 30
2.25158429145813
 11
-0.05424213409423828
 21
0.16871441900730133
 31
2.1102635860443115
 12
-0.02799416333436966
 22
0.0
 32
2.0893077850341797
 13
-0.24339064955711365
 23
0.0
 33
2.2761058807373047
  0
3DFACE
  8
0
 10
-1.468967836260049e-09
 20
0.5085945725440979
 30
1.8570237159729004
 11
0.07874871790409088
 21
0.32834988832473755
 31
2.0411341190338135
 12
2.0994739280411068e-10
 22
0.2542575001716614
 32
2.0470428466796875
 13
-0.07874871790409088
 23
0.32834988832473755
 33
2.0411341190338135
  0
3DFACE
  8
0
 10
-0.3149799108505249
 20
0.39470165967941284
 30
2.1358470916748047
 11
-0.07874871790409088
 21
0.32834988832473755
 31
2.0411341190338135
 12
-0.05424213409423828
 22
0.16871441900730133
 32
2.1102635860443115
 13
-0.28327277302742004
 23
0.2147529423236847
 33
2.25158429145813
  0
3DFACE
  8
0
 10
-0.6918483972549438
 20
0.4302494525909424
 30
2.1923089027404785
 11
-0.3149799108505249
 21
0.39470165967941284
 31
2.1358470916748047
 12
-0.28327277302742004
 22
0.2147529423236847
 32
2.25158429145813
 13
-0.7117214202880859
 23
0.23933057487010956
 33
2.3336992263793945
  0
3DFACE
  8
0
 10
-0.18593867123126984
 20
0.2119724452495575
 30
0.19823360443115234
 11
-0.5089337825775146
 21
0.2734110653400421
 31
0.3686228394508362
 12
-0.5234018564224243
 22
0.14564234018325806
 32
0.25386983156204224
 13
-0.14058899879455566
 23
0.10699521750211716
 33
0.04156188666820526
  0
3DFACE
  8
0
 10
-1.0582685470581055
 20
0.36103343963623047
 30
0.9333837032318115
 11
-1.208458423614502
 21
0.39372971653938293
 31
1.353938102722168
 12
-1.3582955598831177
 22
0.21549741923809052
 32
1.3664767742156982
 13
-1.1767674684524536
 23
0.19687074422836304
 33
0.8996763229370117
  0
3DFACE
  8
0
 10
1.3996492853607378e-10
 20
0.17738857865333557
 30
0.14293798804283142
 11
-0.18593867123126984
 21
0.2119724452495575
 31
0.19823360443115234
 12
-0.14058899879455566
 22
0.10699521750211716
 32
0.04156188666820526
 13
0.0008318808395415545
 23
0.08616744726896286
 33
-0.01026308536529541
  0
3DFACE
  8
0
 10
-1.208458423614502
 20
0.39372971653938293
 30
1.353938102722168
 11
-1.208664894104004
 21
0.42129844427108765
 31
1.7716641426086426
 12
-1.3505884408950806
 22
0.2336963713169098
 32
1.8348023891448975
 13
-1.3582955598831177
 23
0.21549741923809052
 33
1.3664767742156982
  0
3DFACE
  8
0
 10
-0.5089337825775146
 20
0.2734110653400421
 30
0.3686228394508362
 11
-0.8142827749252319
 21
0.3275100588798523
 31
0.5977210402488708
 12
-0.8754072189331055
 22
0.18118728697299957
 32
0.5266420841217041
 13
-0.5234018564224243
 23
0.14564234018325806
 33
0.25386983156204224
  0
3DFACE
  8
0
 10
-0.07874871790409088
 20
0.32834988832473755
 30
2.0411341190338135
 11
2.0994739280411068e-10
 21
0.2542575001716614
 31
2.0470428466796875
 12
1.3996492853607378e-10
 22
0.1371418833732605
 32
2.07981538772583
 13
-0.05424213409423828
 23
0.16871441900730133
 33
2.1102635860443115
  0
3DFACE
  8
0
 10
-1.0379410982131958
 20
0.43351608514785767
 30
2.084829330444336
 11
-0.6918483972549438
 21
0.4302494525909424
 31
2.1923089027404785
 12
-0.7117214202880859
 22
0.23933057487010956
 32
2.3336992263793945
 13
-1.1238343715667725
 23
0.24350835382938385
 33
2.1954574584960938
  0
3DFACE
  8
0
 10
-0.8142827749252319
 20
0.3275100588798523
 30
0.5977210402488708
 11
-1.0582685470581055
 21
0.36103343963623047
 31
0.9333837032318115
 12
-1.1767674684524536
 22
0.19687074422836304
 32
0.8996763229370117
 13
-0.8754072189331055
 23
0.18118728697299957
 33
0.5266420841217041
  0
3DFACE
  8
0
 10
-1.208664894104004
 20
0.42129844427108765
 30
1.7716641426086426
 11
-1.0379410982131958
 21
0.43351608514785767
 31
2.084829330444336
 12
-1.1238343715667725
 22
0.24350835382938385
 32
2.1954574584960938
 13
-1.3505884408950806
 23
0.2336963713169098
 33
1.8348023891448975
  0
3DFACE
  8
0
 10
0.3149799108505249
 20
0.39470165967941284
 30
2.1358470916748047
 11
0.28327277302742004
 21
0.2147529423236847
 31
2.25158429145813
 12
0.05424213409423828
 22
0.16871441900730133
 32
2.1102635860443115
 13
0.07874871790409088
 23
0.32834988832473755
 33
2.0411341190338135
  0
3DFACE
  8
0
 10
0.6918483972549438
 20
0.4302494525909424
 30
2.1923089027404785
 11
0.7117214202880859
 21
0.23933057487010956
 31
2.3336992263793945
 12
0.28327277302742004
 22
0.2147529423236847
 32
2.25158429145813
 13
0.3149799108505249
 23
0.39470165967941284
 33
2.1358470916748047
  0
3DFACE
  8
0
 10
0.18593867123126984
 20
0.19281741976737976
 30
0.19823360443115234
 11
0.14133067429065704
 21
0.09264162182807922
 31
0.042049579322338104
 12
0.5231904983520508
 22
0.1334775686264038
 32
0.2541615068912506
 13
0.5089337825775146
 23
0.2538050711154938
 33
0.3686228394508362
  0
3DFACE
  8
0
 10
1.0582685470581055
 20
0.3533717393875122
 30
0.9333837032318115
 11
1.1765998601913452
 21
0.1926606297492981
 31
0.8995835185050964
 12
1.3582592010498047
 22
0.21544666588306427
 32
1.3664354085922241
 13
1.208458423614502
 23
0.3928590714931488
 33
1.353938102722168
  0
3DFACE
  8
0
 10
1.3996492853607378e-10
 20
0.17738857865333557
 30
0.14293798804283142
 11
0.0008318808395415545
 21
0.08616744726896286
 31
-0.01026308536529541
 12
0.14133067429065704
 22
0.09264162182807922
 32
0.042049579322338104
 13
0.18593867123126984
 23
0.19281741976737976
 33
0.19823360443115234
  0
3DFACE
  8
0
 10
1.208458423614502
 20
0.3928590714931488
 30
1.353938102722168
 11
1.3582592010498047
 21
0.21544666588306427
 31
1.3664354085922241
 12
1.3505866527557373
 22
0.2337019443511963
 32
1.8347984552383423
 13
1.208664894104004
 23
0.42129844427108765
 33
1.7716641426086426
  0
3DFACE
  8
0
 10
0.5089337825775146
 20
0.2538050711154938
 30
0.3686228394508362
 11
0.5231904983520508
 21
0.1334775686264038
 31
0.2541615068912506
 12
0.8752285242080688
 22
0.16366243362426758
 32
0.5266996622085571
 13
0.8142827749252319
 23
0.3036958575248718
 33
0.5977210402488708
  0
3DFACE
  8
0
 10
0.07874871790409088
 20
0.32834988832473755
 30
2.0411341190338135
 11
0.05424213409423828
 21
0.16871441900730133
 31
2.1102635860443115
 12
1.3996492853607378e-10
 22
0.1371418833732605
 32
2.07981538772583
 13
2.0994739280411068e-10
 23
0.2542575001716614
 33
2.0470428466796875
  0
3DFACE
  8
0
 10
1.0379410982131958
 20
0.43351608514785767
 30
2.084829330444336
 11
1.1238343715667725
 21
0.24350835382938385
 31
2.1954574584960938
 12
0.7117214202880859
 22
0.23933057487010956
 32
2.3336992263793945
 13
0.6918483972549438
 23
0.4302494525909424
 33
2.1923089027404785
  0
3DFACE
  8
0
 10
0.8142827749252319
 20
0.3036958575248718
 30
0.5977210402488708
 11
0.8752285242080688
 21
0.16366243362426758
 31
0.5266996622085571
 12
1.1765998601913452
 22
0.1926606297492981
 32
0.8995835185050964
 13
1.0582685470581055
 23
0.3533717393875122
 33
0.9333837032318115
  0
3DFACE
  8
0
 10
1.208664894104004
 20
0.42129844427108765
 30
1.7716641426086426
 11
1.3505866527557373
 21
0.2337019443511963
 31
1.8347984552383423
 12
1.1238343715667725
 22
0.24350835382938385
 32
2.1954574584960938
 13
1.0379410982131958
 23
0.43351608514785767
 33
2.084829330444336
  0
ENDSEC
  0
EOF
